# xmcd
#
# Track frame offsets: 
#        150
#        31601
#        52358
#        80125
#        105654
#        120054
#        142271
#        163562
#
# Disc length: 2548 seconds
#
# Revision: 3
# Processed by: cddbd v1.5.2PL0 Copyright (c) Steve Scherf et al.
# Submitted via: ExactAudioCopy v0.95b4
#
DISCID=6609f208
DTITLE=第七樂章 - 破滅
DYEAR=1900
DGENRE=Rock
TTITLE0=序曲 Free And Peace
TTITLE1=放縱
TTITLE2=褪色
TTITLE3=破滅
TTITLE4=Summer
TTITLE5=Monkey Dancing
TTITLE6=放縱(remix)
TTITLE7=褪色(instrumental)
EXTD=
EXTT0=
EXTT1=
EXTT2=
EXTT3=
EXTT4=
EXTT5=
EXTT6=
EXTT7=
PLAYORDER=
